HIERARCHY
ROOT SpineBase
{
  OFFSET 0.000000 0.000000 0.000000
  CHANNELS 6 Xposition Yposition Zposition Zrotation Xrotation Yrotation
  JOINT SpineMid
  {
    OFFSET 0.000000 31.380823 0.000000
    CHANNELS 3 Zrotation Xrotation Yrotation
    JOINT SpineShoulder
    {
      OFFSET 0.095723 23.361858 -0.836066
      CHANNELS 3 Zrotation Xrotation Yrotation
      JOINT Neck
      {
        OFFSET 0.064288 7.739658 -0.616573
        CHANNELS 3 Zrotation Xrotation Yrotation
        JOINT Head
        {
          OFFSET -4.496866 13.623718 0.815193
          CHANNELS 3 Zrotation Xrotation Yrotation
          End Site
          {
            OFFSET 0 0 0
          }
        }
      }
      JOINT ShoulderLeft
      {
        OFFSET -16.341442 -4.574531 8.094275
        CHANNELS 3 Zrotation Xrotation Yrotation
        JOINT ElbowLeft
        {
          OFFSET -3.211930 -28.083891 1.652975
          CHANNELS 3 Zrotation Xrotation Yrotation
          JOINT WristLeft
          {
            OFFSET -0.625526 -20.704261 -6.739074
            CHANNELS 3 Zrotation Xrotation Yrotation
            JOINT HandLeft
            {
              OFFSET -0.030328 -5.315510 0.670591
              CHANNELS 3 Zrotation Xrotation Yrotation
              JOINT HandTipLeft
              {
                OFFSET 0.288625 -5.311733 -1.277782
                CHANNELS 3 Zrotation Xrotation Yrotation
                End Site
                {
                  OFFSET 0 0 0
                }
              }
              JOINT ThumbLeft
              {
                OFFSET -1.797395 -0.264434 -1.256533
                CHANNELS 3 Zrotation Xrotation Yrotation
                End Site
                {
                  OFFSET 0 0 0
                }
              }
            }
          }
        }
      }
      JOINT ShoulderRight
      {
        OFFSET 14.043795 -2.949095 -7.161349
        CHANNELS 3 Zrotation Xrotation Yrotation
        JOINT ElbowRight
        {
          OFFSET 9.816878 -21.348621 0.715329
          CHANNELS 3 Zrotation Xrotation Yrotation
          JOINT WristRight
          {
            OFFSET -10.447527 -8.280503 -18.235892
            CHANNELS 3 Zrotation Xrotation Yrotation
            JOINT HandRight
            {
              OFFSET -5.572918 2.785571 -5.253631
              CHANNELS 3 Zrotation Xrotation Yrotation
              JOINT HandTipRight
              {
                OFFSET -2.414802 -0.571602 -2.536809
                CHANNELS 3 Zrotation Xrotation Yrotation
                End Site
                {
                  OFFSET 0 0 0
                }
              }
              JOINT ThumbRight
              {
                OFFSET -3.895875 3.860263 4.500973
                CHANNELS 3 Zrotation Xrotation Yrotation
                End Site
                {
                  OFFSET 0 0 0
                }
              }
            }
          }
        }
      }
    }
  }
  JOINT HipLeft
  {
    OFFSET -6.289908 -0.176965 -0.824308
    CHANNELS 3 Zrotation Xrotation Yrotation
    JOINT KneeLeft
    {
      OFFSET 4.478121 -37.425987 2.702924
      CHANNELS 3 Zrotation Xrotation Yrotation
      JOINT AnkleLeft
      {
        OFFSET 7.947453 -37.590799 13.394465
        CHANNELS 3 Zrotation Xrotation Yrotation
        JOINT FootLeft
        {
          OFFSET -2.649412 -7.269680 -4.499439
          CHANNELS 3 Zrotation Xrotation Yrotation
          End Site
          {
            OFFSET 0 0 0
          }
        }
      }
    }
  }
  JOINT HipRight
  {
    OFFSET 6.825749 1.820026 -6.261434
    CHANNELS 3 Zrotation Xrotation Yrotation
    JOINT KneeRight
    {
      OFFSET 7.861973 -36.311771 -6.545859
      CHANNELS 3 Zrotation Xrotation Yrotation
      JOINT AnkleRight
      {
        OFFSET 7.840204 -37.161723 8.461483
        CHANNELS 3 Zrotation Xrotation Yrotation
        JOINT FootRight
        {
          OFFSET -2.190767 -5.021225 -8.602723
          CHANNELS 3 Zrotation Xrotation Yrotation
          End Site
          {
            OFFSET 0 0 0
          }
        }
      }
    }
  }
}
MOTION
Frames: 5
Frame Time: 0.033333
-22.688522 82.507268 339.158206 1.085930 0.247950 25.938308 -0.470566 -0.701714 -25.898749 -0.071257 -0.477474 0.047399 -11.002067 -10.172974 -4.141262 0.000000 0.000000 0.000000 -10.980169 52.585373 -1.957138 60.932983 10.001167 11.114618 -21.685820 32.509528 5.853721 51.481806 -46.053824 48.090703 0.000000 0.000000 0.000000 0.000000 0.000000 0.000000 -24.871464 17.108713 11.558204 -1.651058 -10.664745 21.995952 20.791571 -9.667463 -11.806956 -18.556803 11.071912 1.198789 0.000000 0.000000 0.000000 0.000000 0.000000 0.000000 -8.881878 -0.536676 -26.937831 -4.126983 2.574450 -2.834750 1.323543 -15.768703 16.519844 0.000000 0.000000 0.000000 -6.302710 -6.442920 -27.731458 1.380842 6.026313 0.885086 6.825567 -23.448052 3.345276 0.000000 0.000000 0.000000
-22.622864 82.486056 339.109459 1.051386 -0.013379 26.228608 -0.584437 -0.678168 -26.190779 -0.124008 -0.506636 0.038338 -10.505043 -8.999353 -3.688092 0.000000 0.000000 0.000000 -8.181752 55.040929 -3.226162 61.042642 3.639155 15.309493 -21.270487 13.910814 13.441063 37.306174 -40.720225 23.636758 0.000000 0.000000 0.000000 0.000000 0.000000 0.000000 -24.402317 17.133550 11.444029 -2.199425 -10.586866 22.799782 21.070901 -8.612396 -10.801846 -19.151297 9.770911 2.890668 0.000000 0.000000 0.000000 0.000000 0.000000 0.000000 -8.798670 -0.253480 -27.195048 -4.018946 2.560290 -2.823674 1.813033 -15.123021 15.998241 0.000000 0.000000 0.000000 -6.227715 -6.252813 -28.016748 1.279542 6.050131 0.877091 8.386683 -27.514033 3.849269 0.000000 0.000000 0.000000
-22.551056 82.476586 339.059996 1.036258 -0.210147 26.549169 -0.562015 -0.592195 -26.510059 -0.102142 -0.471617 0.038682 -10.523186 -8.509831 -3.494606 0.000000 0.000000 0.000000 -6.735656 55.219103 -3.927750 59.200146 2.981022 15.132244 -18.535300 10.809976 15.264599 29.302234 -41.417783 17.670512 0.000000 0.000000 0.000000 0.000000 0.000000 0.000000 -23.210370 16.846031 10.972477 -3.267933 -10.591508 23.565622 21.416589 -7.201845 -9.290729 -18.351959 7.530754 2.161589 0.000000 0.000000 0.000000 0.000000 0.000000 0.000000 -8.755599 0.014773 -27.485200 -4.038050 2.533423 -2.857120 1.913373 -14.224356 15.661916 0.000000 0.000000 0.000000 -6.248492 -6.127556 -28.343349 1.178650 6.180857 0.880736 10.389217 -32.196839 4.310665 0.000000 0.000000 0.000000
-22.475778 82.468565 339.004303 1.007259 -0.366387 26.863225 -0.462631 -0.466960 -26.822863 -0.039418 -0.381244 0.042393 -10.656038 -8.643476 -3.535615 0.000000 0.000000 0.000000 -7.256750 55.046678 -3.715441 52.868085 9.024419 11.399501 -11.481027 26.358030 11.293254 29.604790 -48.407122 28.633951 0.000000 0.000000 0.000000 0.000000 0.000000 0.000000 -22.551544 16.811005 10.828029 -4.359634 -11.060232 24.460672 21.428336 -5.155015 -8.643835 -17.426152 4.567878 2.324880 0.000000 0.000000 0.000000 0.000000 0.000000 0.000000 -8.718439 0.255528 -27.773476 -3.868542 2.429119 -2.858087 2.214642 -14.725211 15.706937 0.000000 0.000000 0.000000 -6.316816 -6.055661 -28.670957 1.158997 6.386060 0.896955 8.369582 -26.723350 3.652934 0.000000 0.000000 0.000000
-22.414522 82.465193 338.962696 1.006827 -0.417890 27.165635 -0.256093 -0.325259 -27.122270 0.061370 -0.253994 0.052872 -11.374175 -9.456796 -3.843869 0.000000 0.000000 0.000000 -9.856246 54.361547 -2.601266 47.084820 19.577490 7.129505 -4.995341 31.359001 11.878451 18.734548 -51.745216 24.176355 0.000000 0.000000 0.000000 0.000000 0.000000 0.000000 -22.007619 16.546488 10.566894 -5.981778 -10.903040 25.487457 22.192106 -3.891984 -6.051224 -18.329114 4.321465 0.819303 0.000000 0.000000 0.000000 0.000000 0.000000 0.000000 -8.736354 0.414654 -28.060469 -3.740201 2.355498 -2.857987 2.464067 -14.610952 15.513123 0.000000 0.000000 0.000000 -6.442031 -6.058603 -28.993836 1.143910 6.606667 0.921229 8.138798 -25.684733 3.276270 0.000000 0.000000 0.000000
